<svg width="38" height="38" viewBox="0 0 38 38" fill="none" xmlns="http://www.w3.org/2000/svg">
<path fill-rule="evenodd" clip-rule="evenodd" d="M13.0626 9.52374V7.91666C13.0626 6.34193 13.6882 4.83171 14.8017 3.71821C15.9152 2.60471 17.4254 1.97916 19.0001 1.97916C20.5748 1.97916 22.0851 2.60471 23.1985 3.71821C24.312 4.83171 24.9376 6.34193 24.9376 7.91666V9.52374C26.9754 9.58549 28.223 9.80399 29.1746 10.5941C30.4935 11.6897 30.8419 13.5422 31.5369 17.2488L32.7244 23.5822C33.7014 28.7945 34.189 31.4007 32.7656 33.117C31.3406 34.8333 28.6885 34.8333 23.3859 34.8333H14.6143C9.3101 34.8333 6.6596 34.8333 5.2346 33.117C3.8096 31.4007 4.30044 28.7945 5.27577 23.5822L6.46327 17.2488C7.15993 13.5438 7.50669 11.6897 8.8256 10.5941C9.77718 9.80399 11.0249 9.58549 13.0626 9.52374ZM15.4376 7.91666C15.4376 6.97182 15.8129 6.06569 16.481 5.39759C17.1491 4.72949 18.0553 4.35416 19.0001 4.35416C19.9449 4.35416 20.8511 4.72949 21.5192 5.39759C22.1873 6.06569 22.5626 6.97182 22.5626 7.91666V9.49999H15.4376V7.91666Z" fill="white"/>
</svg>
