<svg width="41" height="41" viewBox="0 0 41 41" fill="none" xmlns="http://www.w3.org/2000/svg">
<path d="M4.4288 27.294C5.5768 22.989 9.08657 19.6458 13.5419 19.6458C17.723 19.6458 20.5153 23.4255 20.4231 27.6066L20.3744 29.801C20.3561 30.6183 20.5057 31.4306 20.8138 32.1878C21.1218 32.945 21.5819 33.631 22.1656 34.2034L23.1103 35.131C24.465 36.4609 23.674 38.739 21.782 38.8962C19.334 39.0986 16.3068 39.2916 13.6666 39.2916C10.2653 39.2916 6.86488 38.9713 4.74057 38.7228C3.48324 38.5759 2.55561 37.503 2.67605 36.244C2.94938 33.3714 3.67884 30.1042 4.4288 27.294Z" stroke="white" stroke-width="1.5" stroke-linecap="round" stroke-linejoin="round"/>
<path d="M17.0834 20.5154C18.5184 15.1939 20.0405 9.86562 21.2287 4.4801C21.4157 3.63191 21.1877 2.76322 20.3745 2.45999C20.1735 2.38609 19.9691 2.32167 19.7621 2.26695C19.5554 2.21103 19.3461 2.16485 19.1351 2.12858C18.2792 1.98337 17.6471 2.62229 17.3858 3.44997C15.7116 8.73812 14.3603 14.1458 12.933 19.5015M38.4376 38.4375H29.8959M35.8751 31.6042H27.3334M33.3126 24.7708H24.7709M8.58358 32.2448C8.44094 33.526 8.58358 36.6865 10.2919 39.0781M14.5627 32.4583C14.5627 32.4583 14.5627 36.7292 17.0834 38.8646" stroke="white" stroke-width="1.5" stroke-linecap="round" stroke-linejoin="round"/>
</svg>
