<svg width="74" height="38" viewBox="0 0 74 38" fill="none" xmlns="http://www.w3.org/2000/svg">
<path d="M47.8749 3.16666C48.7148 3.16666 49.5202 3.50029 50.1141 4.09415C50.708 4.68802 51.0416 5.49347 51.0416 6.33332C51.0416 7.17318 50.708 7.97863 50.1141 8.57249C49.5202 9.16636 48.7148 9.49999 47.8749 9.49999C47.0351 9.49999 46.2296 9.16636 45.6357 8.57249C45.0419 7.97863 44.7083 7.17318 44.7083 6.33332C44.7083 5.49347 45.0419 4.68802 45.6357 4.09415C46.2296 3.50029 47.0351 3.16666 47.8749 3.16666ZM45.4999 11.0833H50.2499C51.0898 11.0833 51.8952 11.417 52.4891 12.0108C53.083 12.6047 53.4166 13.4101 53.4166 14.25V22.9583H51.0416V34.8333H44.7083V22.9583H42.3333V14.25C42.3333 13.4101 42.6669 12.6047 43.2607 12.0108C43.8546 11.417 44.6601 11.0833 45.4999 11.0833ZM58.9583 19C58.9583 18.1601 59.2919 17.3547 59.8857 16.7608C60.4796 16.167 61.2851 15.8333 62.1249 15.8333C62.9648 15.8333 63.7702 16.167 64.3641 16.7608C64.958 17.3547 65.2916 18.1601 65.2916 19C65.2916 19.8398 64.958 20.6453 64.3641 21.2392C63.7702 21.833 62.9648 22.1667 62.1249 22.1667C61.2851 22.1667 60.4796 21.833 59.8857 21.2392C59.2919 20.6453 58.9583 19.8398 58.9583 19ZM57.3749 23.75H66.8749V30.0833H64.4999V34.8333H59.7499V30.0833H57.3749V23.75Z" fill="white"/>
<path d="M4.12701 15.644L7.99101 14.3H9.67101V29H7.73901V16.4L4.61001 17.324L4.12701 15.644ZM21.1464 16.022L17.9544 20.327C20.2014 20.747 21.7764 22.322 21.7764 24.653C21.7764 26.081 21.2934 27.215 20.3064 28.034C19.3194 28.853 18.1434 29.273 16.7364 29.273C14.4894 29.273 12.6414 28.223 11.9064 26.291L13.5444 25.325C13.9854 26.69 15.0354 27.362 16.7364 27.362C18.5634 27.362 19.8234 26.354 19.8234 24.653C19.8234 22.952 18.5634 21.923 16.7364 21.923H16.2324L15.4554 20.726L18.8574 16.127H12.3264V14.3H21.1464V16.022ZM29.1506 20.768H32.8046V22.511H29.1506V26.165H27.4076V22.511H23.7746V20.768H27.4076V17.135H29.1506V20.768Z" fill="white"/>
</svg>
