<svg width="45" height="45" viewBox="0 0 45 45" fill="none" xmlns="http://www.w3.org/2000/svg">
<path d="M11.7158 2.93643L6.8458 4.15284L3.04102 13.0342L5.96689 14.9854L8.38037 10.1602L9.87891 10.5908L8.55439 23.7832H21.5508L22.3594 16.0576L22.4385 15.3457H22.834L22.3594 10.5908L23.8623 10.1602L26.2705 14.9854L29.1973 13.0342L25.3916 4.15284L20.5225 2.93643C20.0391 3.27657 19.4502 3.48223 18.8086 3.63516C17.9824 3.8294 17.0508 3.91993 16.1191 3.91993C15.1875 3.91993 14.2559 3.8294 13.4297 3.63516C12.7881 3.48223 12.1992 3.27745 11.7158 2.93643ZM23.8623 16.9277L23.7305 18.1582H39.4453L39.3135 16.9277H23.8623ZM23.5635 19.7402L21.2168 42.0645H26.7275L30.8145 23.001H32.3613L36.4482 42.0645H41.959L39.6123 19.7402H23.5635Z" fill="white"/>
</svg>
