<svg width="33" height="33" viewBox="0 0 33 33" fill="none" xmlns="http://www.w3.org/2000/svg">
<path d="M30.25 16.5C30.25 24.0941 24.0941 30.25 16.5 30.25C8.90588 30.25 2.75 24.0941 2.75 16.5C2.75 8.90588 8.90588 2.75 16.5 2.75" stroke="white" stroke-width="2" stroke-linecap="round" stroke-linejoin="round"/>
<path d="M25.8567 6.51199L26.032 7.05237H26.6005L26.1406 7.38649L26.3159 7.92687L25.8567 7.59274L25.3967 7.92687L25.572 7.38649L25.1128 7.05237H25.6807L25.8567 6.51199Z" stroke="white" stroke-width="2"/>
<path d="M11 21.3125C11 21.3125 12.375 24.0625 16.5 24.0625C20.625 24.0625 22 21.3125 22 21.3125" stroke="white" stroke-width="2" stroke-linecap="round" stroke-linejoin="round"/>
<path d="M11.6875 17.1875C12.8266 17.1875 13.75 16.2641 13.75 15.125C13.75 13.9859 12.8266 13.0625 11.6875 13.0625C10.5484 13.0625 9.625 13.9859 9.625 15.125C9.625 16.2641 10.5484 17.1875 11.6875 17.1875Z" stroke="white" stroke-width="2"/>
<path d="M21.3125 17.1875C22.4516 17.1875 23.375 16.2641 23.375 15.125C23.375 13.9859 22.4516 13.0625 21.3125 13.0625C20.1734 13.0625 19.25 13.9859 19.25 15.125C19.25 16.2641 20.1734 17.1875 21.3125 17.1875Z" stroke="white" stroke-width="2"/>
</svg>
