<svg width="46" height="49" viewBox="0 0 46 49" fill="none" xmlns="http://www.w3.org/2000/svg">
<path d="M19.3974 10L14.9411 14.0241L24.0872 24.1495L26.2794 22.1639C25.5067 21.3014 24.8778 20.5198 24.5185 19.5675C24.1321 18.5073 24.195 17.3034 24.6802 15.8479L19.3974 10ZM39.6931 11.4573L31.7958 18.4983L30.8435 15.0393L27.6091 23.3948C27.6091 23.3948 31.3196 22.3436 33.1794 21.8225V24.7514L44.1853 17.5999L35.6411 19.819L39.6931 11.4573ZM16.8189 18.5163L2.17163 31.7413L4.15628 33.9425L18.7954 20.6995L16.8189 18.5163ZM22.6946 27.1862V30.4745L27.5013 35.5057L26.9083 37.5721L32.0564 42.7112L30.9064 43.8612L29.8282 42.7831L25.4978 45.2358L24.7071 43.8343L28.6423 41.6061L26.3962 39.36L25.8032 41.4534L24.24 41.0042L25.6864 35.955L22.6946 32.8194V48.569H44.0774V27.1862H31.3107L32.9997 31.1663L37.9232 31.7233L41.4181 28.5878L42.4962 29.7917L40.9509 31.1843L42.1009 34.5983L40.5735 35.1194L39.6392 32.3522L38.4622 33.4124L33.7274 32.8733L35.3806 36.7636L33.2962 39.5307L32.0025 38.5604L33.5298 36.53L30.8614 30.2679L28.6692 31.6245L27.8247 30.2589L30.2146 28.7764L30.2595 28.8573L29.5497 27.1862H22.6946Z" fill="white"/>
</svg>
