<svg width="47" height="40" viewBox="0 0 47 40" fill="none" xmlns="http://www.w3.org/2000/svg">
<path d="M10.337 2.94113C10.337 1.9255 11.1182 1.08175 12.126 0.995816L23.9854 0.00362843C24.712 -0.0510591 25.337 0.519253 25.337 1.25363V3.64425C25.337 4.33175 24.7745 4.89425 24.087 4.89425H12.2901C11.212 4.89425 10.337 4.01925 10.337 2.94113ZM11.712 7.39425H23.962C24.0401 7.8005 24.087 8.21457 24.087 8.64425C24.087 12.0974 21.2901 14.8943 17.837 14.8943C14.3839 14.8943 11.587 12.0974 11.587 8.64425C11.587 8.21457 11.6339 7.8005 11.712 7.39425ZM29.5245 35.8552L25.337 28.7771V37.3943C25.337 37.4958 25.3292 37.5896 25.3214 37.6911L11.7042 18.2458C13.001 17.6911 14.4073 17.3943 15.8682 17.3943H19.8057C21.0479 17.3943 22.251 17.613 23.3839 18.0114L30.7979 5.18332C30.1964 4.83957 29.9932 4.07394 30.337 3.47238C30.6807 2.87082 31.4464 2.66769 32.0479 3.01144L33.1339 3.63644L34.2198 4.26144C34.8214 4.60519 35.0245 5.37082 34.6807 5.97238L30.337 13.4802L30.462 13.5505C31.6573 14.238 32.0714 15.7693 31.376 16.9646L28.5089 21.9255C28.6651 22.1443 28.8135 22.3786 28.9542 22.613L34.8995 32.6755C35.7745 34.1599 35.2823 36.0739 33.7979 36.9568C32.3135 37.8396 30.3995 37.3396 29.5167 35.8552H29.5245ZM22.837 39.8943H12.837C11.4542 39.8943 10.337 38.7771 10.337 37.3943V28.7771L6.14948 35.8552C5.27449 37.3396 3.35261 37.8318 1.86823 36.9568C0.38386 36.0818 -0.108328 34.1599 0.766672 32.6755L6.71198 22.613C7.44636 21.3786 8.4073 20.3239 9.52449 19.488L23.7042 39.738C23.4307 39.8396 23.1417 39.8943 22.837 39.8943ZM20.962 24.8943C21.4593 24.8943 21.9362 24.6967 22.2878 24.3451C22.6394 23.9934 22.837 23.5165 22.837 23.0193C22.837 22.522 22.6394 22.0451 22.2878 21.6934C21.9362 21.3418 21.4593 21.1443 20.962 21.1443C20.4647 21.1443 19.9878 21.3418 19.6362 21.6934C19.2845 22.0451 19.087 22.522 19.087 23.0193C19.087 23.5165 19.2845 23.9934 19.6362 24.3451C19.9878 24.6967 20.4647 24.8943 20.962 24.8943Z" fill="white"/>
</svg>
