<svg width="66" height="60" viewBox="0 0 66 60" fill="none" xmlns="http://www.w3.org/2000/svg">
<path d="M17.1464 25.0018L13.4693 25.6643C13.3607 27.2911 12.2951 28.5286 10.9502 29.0925C9.6053 29.6564 7.97711 29.5484 6.73942 28.486L3.68935 30.6441M17.1464 25.0018L17.7796 24.8865C19.2616 24.6193 20.8173 24.9127 21.8537 26.0041C23.7295 27.985 26.0378 31.4386 28.4054 36.7949C28.6822 37.4174 28.8195 37.7298 28.7064 38.0144C28.5933 38.2991 28.2745 38.4327 27.637 38.7L24.8948 39.8498M17.1464 25.0018C18.449 28.1085 20.9979 33.373 24.8948 39.8498M3.68935 30.6441L3.16192 31.0155C1.93392 31.8846 1.05265 33.1997 1.10592 34.7034C1.20241 37.4302 2.04878 41.4968 4.20792 46.9405C4.45781 47.5742 4.58438 47.8912 4.86666 48.01C5.14895 48.1289 5.46769 47.9952 6.10517 47.728L8.84742 46.5782M3.68935 30.6441C4.99194 33.7508 6.95985 39.2589 8.84742 46.5782M24.8948 39.8498C25.6456 41.0973 26.9467 43.1294 28.0012 44.7619C28.7975 45.9936 29.1963 46.6091 29.0918 47.627C28.9892 48.6458 28.6133 49.0279 27.8617 49.7922C26.6105 51.0663 24.5804 52.6322 21.3823 53.9732C18.1854 55.3136 15.6442 55.6643 13.8585 55.6634C12.7866 55.6638 12.2506 55.664 11.4521 55.0231C10.6529 54.3841 10.4934 53.6682 10.1732 52.2369C9.74809 50.3405 9.21089 47.9881 8.84742 46.5782" stroke="white" stroke-width="1.5" stroke-linecap="round" stroke-linejoin="round"/>
<path d="M13.3995 27.2748C15.1631 32.0352 19.5786 41.6802 25.5042 41.1755M7.93789 29.5648C10.0955 34.16 13.8776 44.0705 9.36538 47.9422" stroke="white" stroke-width="1.5" stroke-linecap="round" stroke-linejoin="round"/>
<path fill-rule="evenodd" clip-rule="evenodd" d="M43.9872 22.631L49.2104 25.18L48.6745 26.2781C48.6748 26.307 48.6683 26.4447 48.7458 26.7355C48.85 27.1313 49.0657 27.6476 49.3955 28.2024C50.0657 29.3257 51.0715 30.4001 52.1744 30.9383C53.2774 31.4766 54.7455 31.6095 56.0411 31.4455C56.6813 31.3642 57.221 31.2165 57.5995 31.0563C57.8741 30.9373 57.9786 30.8475 58.0016 30.8299L58.5375 29.7318L63.7606 32.2808L65.8773 41.6213L58.0904 50.2593L54.887 46.0858L48.4391 59.2982L32.1167 51.3325L38.5646 38.1201L33.3037 38.1628L35.3229 26.7072L43.9872 22.631Z" fill="white"/>
</svg>
