<svg width="31" height="31" viewBox="0 0 31 31" fill="none" xmlns="http://www.w3.org/2000/svg">
<path d="M10.9509 10.9508C11.1932 10.7086 11.5216 10.5726 11.8641 10.5726C12.2066 10.5726 12.5351 10.7086 12.7774 10.9508L15.5596 13.7317L18.3406 10.9508C18.4597 10.8274 18.6022 10.729 18.7598 10.6613C18.9174 10.5936 19.0869 10.558 19.2584 10.5565C19.4299 10.555 19.6 10.5877 19.7588 10.6526C19.9175 10.7176 20.0617 10.8135 20.183 10.9347C20.3043 11.056 20.4002 11.2002 20.4651 11.359C20.5301 11.5177 20.5628 11.6878 20.5613 11.8593C20.5598 12.0308 20.5241 12.2003 20.4564 12.3579C20.3887 12.5155 20.2903 12.658 20.167 12.7772L17.386 15.5594L20.167 18.3404C20.4023 18.584 20.5325 18.9103 20.5295 19.2489C20.5266 19.5876 20.3907 19.9116 20.1512 20.1511C19.9118 20.3905 19.5878 20.5264 19.2491 20.5293C18.9105 20.5323 18.5842 20.4021 18.3406 20.1668L15.5596 17.3858L12.7774 20.1668C12.5328 20.3964 12.2085 20.5219 11.8731 20.5167C11.5377 20.5115 11.2174 20.376 10.9801 20.1389C10.7428 19.9018 10.6071 19.5816 10.6016 19.2462C10.5962 18.9108 10.7215 18.5864 10.9509 18.3417L13.7319 15.5607L10.9509 12.7785C10.7088 12.5362 10.5728 12.2078 10.5728 11.8653C10.5728 11.5228 10.7088 11.1943 10.9509 10.952" fill="white"/>
<path fill-rule="evenodd" clip-rule="evenodd" d="M15.5002 2.58334C8.36629 2.58334 2.5835 8.36614 2.5835 15.5C2.5835 22.6339 8.36629 28.4167 15.5002 28.4167C22.634 28.4167 28.4168 22.6339 28.4168 15.5C28.4168 8.36614 22.634 2.58334 15.5002 2.58334ZM5.16683 15.5C5.16683 12.7594 6.25552 10.1311 8.19339 8.19324C10.1313 6.25536 12.7596 5.16668 15.5002 5.16668C18.2407 5.16668 20.8691 6.25536 22.8069 8.19324C24.7448 10.1311 25.8335 12.7594 25.8335 15.5C25.8335 18.2406 24.7448 20.8689 22.8069 22.8068C20.8691 24.7447 18.2407 25.8333 15.5002 25.8333C12.7596 25.8333 10.1313 24.7447 8.19339 22.8068C6.25552 20.8689 5.16683 18.2406 5.16683 15.5Z" fill="white"/>
</svg>
