<svg width="37" height="37" viewBox="0 0 37 37" fill="none" xmlns="http://www.w3.org/2000/svg">
<path d="M13.6594 1.2851L12.5219 1.48599L13.5183 7.15017L14.6558 6.94985L13.6594 1.2851ZM20.091 2.57287C19.6292 3.16111 19.4701 3.65035 19.4932 4.07888C19.5214 4.59992 19.8162 5.13107 20.3525 5.69113C21.1727 6.54676 22.5103 7.39226 23.8292 8.26957L23.6846 9.25657L23.4122 9.31453L22.8153 9.43883L22.819 9.44316L13.1506 11.5389C12.9569 11.9002 12.8514 12.4624 12.9157 13.0124C12.9764 13.537 13.186 13.9944 13.4216 14.2503L21.865 12.4256L22.2834 13.4185L14.7981 18.4048C14.7744 18.7331 14.8317 19.0622 14.9652 19.3631C14.9797 19.397 14.9948 19.4295 15.0107 19.4628C15.0597 19.5632 15.1152 19.6602 15.1769 19.7533C15.4544 20.1811 15.8671 20.507 16.2024 20.6313L24.0329 15.3559L24.765 16.1566L18.6457 23.6744C18.7432 24.0076 19.0265 24.4238 19.4406 24.736C19.8684 25.0605 20.3801 25.2375 20.7891 25.2303L26.7272 18.0486L27.6592 18.6043L24.6241 26.0997C24.8286 26.3815 25.234 26.6677 25.7355 26.8223C26.258 26.9828 26.8267 26.982 27.2184 26.8577L31.3514 16.9154L31.355 16.906C31.8782 15.5836 33.3785 14.7482 35.4207 14.0739C35.5118 14.0438 35.6056 14.0147 35.6992 13.9853V4.08373C33.868 5.57067 31.8263 6.77769 29.6408 7.66536L29.6371 7.66897C30.0531 7.99939 30.4377 8.36732 30.7863 8.76813C31.501 9.61075 31.9274 10.6058 31.798 11.7093L30.714 11.5829C30.8022 10.8154 30.5419 10.1708 29.9529 9.47633C29.364 8.78186 28.4411 8.08305 27.3319 7.36112C25.2369 5.99963 22.4974 4.54861 20.091 2.57287ZM5.55549 4.85863L4.79945 5.73304L9.28498 9.61082L10.0409 8.7364L5.55535 4.85863H5.55549ZM2.37291 12.8303L2.35051 13.9865L7.41908 14.0877L7.43931 12.9278L2.37291 12.8303ZM9.01918 16.8487C8.64412 16.8513 8.2773 16.959 7.96039 17.1596C7.64348 17.3602 7.38918 17.6457 7.22638 17.9836C7.06358 18.3215 6.9988 18.6983 7.0394 19.0711C7.08001 19.444 7.22436 19.798 7.45608 20.0929L3.63597 31.7501C3.21409 31.8585 2.83869 32.1006 2.56609 32.4404C2.29348 32.7801 2.13836 33.199 2.12398 33.6344C2.10959 34.0697 2.23673 34.498 2.48632 34.8549C2.73591 35.2119 3.09451 35.4784 3.50832 35.6143C3.92214 35.7502 4.36887 35.7484 4.78154 35.609C5.1942 35.4696 5.55054 35.2001 5.79713 34.8411C6.04372 34.482 6.16727 34.0527 6.14924 33.6175C6.13121 33.1823 5.97258 32.7647 5.69713 32.4272L9.50625 20.8026C9.93387 20.6987 10.3154 20.457 10.5921 20.1148C10.8688 19.7726 11.0252 19.3489 11.0373 18.909C11.0494 18.4691 10.9164 18.0374 10.659 17.6806C10.4015 17.3237 10.0337 17.0614 9.61248 16.9342C9.42011 16.8762 9.22011 16.8474 9.01918 16.8487ZM1.30078 19.7352V23.4365L2.36713 23.7849C2.44569 23.8086 2.5187 23.8478 2.5819 23.9002C2.64509 23.9525 2.69719 24.0169 2.73512 24.0897C2.77306 24.1625 2.79607 24.2421 2.8028 24.3238C2.80953 24.4056 2.79985 24.4879 2.77432 24.5659C2.74879 24.6439 2.70793 24.716 2.65414 24.7779C2.60036 24.8399 2.53473 24.8905 2.46111 24.9267C2.38749 24.963 2.30737 24.9841 2.22546 24.989C2.14355 24.9938 2.0615 24.9822 1.98412 24.9549L1.30078 24.7316V28.5805L2.96405 29.1261L5.58078 21.1414L1.30078 19.7352ZM9.61964 24.1275L7.98499 29.1139L9.00683 29.4485L10.6415 24.4621L9.61964 24.1275ZM11.7399 24.8227L10.1053 29.8091L11.13 30.1437L12.7646 25.1573L11.7399 24.8227ZM13.8602 25.5172L12.2255 30.5035L13.2474 30.8381L14.882 25.8518L13.8602 25.5172ZM15.987 26.2117L14.3523 31.198L15.3742 31.5325L17.0088 26.5461L15.987 26.2117ZM18.1015 26.9069L16.4668 31.8932L17.4944 32.2263L19.1291 27.24L18.1015 26.9069ZM20.2282 27.6013L18.5936 32.5877L19.6154 32.9223L21.2501 27.9359L20.2282 27.6013ZM22.3463 28.2958L20.7117 33.2821L21.7335 33.6167L23.3682 28.6304L22.3463 28.2958ZM24.6509 28.4093L22.5371 34.8604C22.9653 35.0179 23.4209 35.0875 23.8766 35.065C24.3323 35.0426 24.7788 34.9286 25.1895 34.7297C25.6001 34.5309 25.9665 34.2514 26.2668 33.9079C26.5671 33.5643 26.795 33.1638 26.9371 32.7302C27.0792 32.2967 27.1324 31.8389 27.0937 31.3843C27.0549 30.9297 26.925 30.4875 26.7116 30.0842C26.4982 29.681 26.2058 29.3248 25.8517 29.037C25.4977 28.7492 25.0893 28.5357 24.6509 28.4093Z" fill="white"/>
</svg>
