<svg width="44" height="44" viewBox="0 0 44 44" fill="none" xmlns="http://www.w3.org/2000/svg">
<path d="M16.5001 20.1667C17.9505 20.1667 19.3683 19.7366 20.5743 18.9308C21.7802 18.125 22.7202 16.9797 23.2752 15.6397C23.8302 14.2997 23.9755 12.8252 23.6925 11.4027C23.4095 9.98015 22.7111 8.67347 21.6855 7.64789C20.6599 6.6223 19.3533 5.92387 17.9307 5.64091C16.5082 5.35795 15.0337 5.50318 13.6937 6.05822C12.3537 6.61326 11.2084 7.55319 10.4026 8.75915C9.59684 9.96512 9.16675 11.3829 9.16675 12.8333C9.16675 14.7783 9.93936 16.6435 11.3146 18.0188C12.6899 19.3941 14.5552 20.1667 16.5001 20.1667ZM31.1667 23.8333C32.2545 23.8333 33.3179 23.5108 34.2224 22.9064C35.1269 22.3021 35.8318 21.4431 36.2481 20.4381C36.6644 19.4331 36.7733 18.3272 36.5611 17.2603C36.3489 16.1934 35.825 15.2134 35.0558 14.4443C34.2866 13.6751 33.3066 13.1512 32.2397 12.939C31.1729 12.7268 30.067 12.8357 29.062 13.252C28.057 13.6683 27.198 14.3732 26.5937 15.2777C25.9893 16.1822 25.6667 17.2455 25.6667 18.3333C25.6667 19.792 26.2462 21.191 27.2777 22.2224C28.3091 23.2539 29.7081 23.8333 31.1667 23.8333ZM38.5001 36.6667C38.9863 36.6667 39.4526 36.4735 39.7964 36.1297C40.1403 35.7859 40.3334 35.3196 40.3334 34.8333C40.3319 33.1199 39.8503 31.4412 38.943 29.9876C38.0358 28.5341 36.7393 27.3639 35.2007 26.6099C33.6621 25.8558 31.943 25.5481 30.2383 25.7217C28.5337 25.8952 26.9118 26.543 25.5567 27.5917C23.761 25.803 21.4759 24.5861 18.9894 24.0944C16.503 23.6028 13.9267 23.8584 11.5853 24.8291C9.24399 25.7997 7.24251 27.442 5.83327 29.5486C4.42404 31.6553 3.67018 34.1321 3.66675 36.6667C3.66675 37.1529 3.8599 37.6192 4.20372 37.963C4.54754 38.3069 5.01385 38.5 5.50008 38.5H27.5001C27.9863 38.5 28.4526 38.3069 28.7964 37.963C29.1403 37.6192 29.3334 37.1529 29.3334 36.6667" fill="white"/>
</svg>
