<svg width="39" height="39" viewBox="0 0 39 39" fill="none" xmlns="http://www.w3.org/2000/svg">
<path fill-rule="evenodd" clip-rule="evenodd" d="M13.742 3.01971C12.3659 3.01971 11.2182 3.75514 10.4632 4.74964C9.67908 5.82027 9.26362 7.11651 9.27932 8.4435C9.27932 9.83636 9.70553 11.1456 10.4632 12.1401C11.2182 13.1346 12.3659 13.8673 13.742 13.8673C15.1154 13.8673 16.2631 13.1346 17.0208 12.1401C17.8056 11.0688 18.2211 9.77144 18.2047 8.4435C18.2047 7.05343 17.7757 5.74136 17.0208 4.74964C16.2631 3.75514 15.1154 3.01971 13.742 3.01971ZM25.2582 3.01971C23.8848 3.01971 22.7371 3.75514 21.9794 4.74964C21.1952 5.82027 20.7798 7.11651 20.7955 8.4435C20.7955 9.83636 21.2245 11.1456 21.9794 12.1401C22.7371 13.1346 23.8848 13.8673 25.2582 13.8673C26.6343 13.8673 27.782 13.1346 28.5397 12.1401C29.2975 11.1456 29.7237 9.83636 29.7237 8.4435C29.7237 7.05343 29.2947 5.74136 28.5397 4.74964C27.782 3.75514 26.6343 3.01971 25.2582 3.01971ZM33.5763 13.2572C30.7516 13.2572 28.9576 15.9928 28.9576 18.681C28.9576 21.3692 30.7516 24.1076 33.5763 24.1076C36.401 24.1076 38.195 21.372 38.195 18.681C38.195 15.99 36.401 13.2572 33.5763 13.2572ZM5.42389 13.2572C2.59918 13.2572 0.805176 15.99 0.805176 18.681C0.805176 21.372 2.59918 24.1076 5.42389 24.1076C8.2486 24.1076 10.0426 21.372 10.0426 18.681C10.0426 15.99 8.24582 13.26 5.42389 13.26M19.5001 18.4108C16.252 18.4108 13.8507 20.1519 12.3157 22.3108C10.8031 24.4335 10.0426 27.0688 10.0426 29.211C10.0426 31.7181 11.5497 33.4592 13.3882 34.5039C15.199 35.529 17.4693 35.9803 19.5001 35.9803C21.5337 35.9803 23.7985 35.529 25.6092 34.5039C27.4477 33.4592 28.9576 31.7181 28.9576 29.211C28.9576 27.0688 28.1971 24.4335 26.6817 22.308C25.1495 20.1519 22.7482 18.408 19.5001 18.408" fill="white"/>
</svg>
