<svg width="39" height="39" viewBox="0 0 39 39" fill="none" xmlns="http://www.w3.org/2000/svg">
<path fill-rule="evenodd" clip-rule="evenodd" d="M19.5 3.65625C19.8232 3.65625 20.1332 3.78465 20.3618 4.01321C20.5903 4.24177 20.7188 4.55177 20.7188 4.875V6.1035C25.7161 6.17722 30.6954 6.72129 35.5908 7.7285C35.8872 7.78869 36.1507 7.957 36.33 8.20069C36.5093 8.44438 36.5915 8.74603 36.5607 9.04698C36.5299 9.34794 36.3882 9.62667 36.1633 9.82899C35.9384 10.0313 35.6463 10.1427 35.3438 10.1416H32.227L36.2472 26.5931C36.3117 26.856 36.2867 27.1329 36.1764 27.38C36.0661 27.6272 35.8766 27.8306 35.6379 27.9581C34.0484 28.8102 32.2722 29.2541 30.4688 29.25C28.6653 29.2541 26.8891 28.8102 25.2996 27.9581C25.0609 27.8306 24.8714 27.6272 24.7611 27.38C24.6508 27.1329 24.6258 26.856 24.6903 26.5931L28.7105 10.1416H20.7188V31.7216C22.8199 31.8451 24.8365 32.279 26.7264 32.9826C26.9944 33.0822 27.2188 33.2729 27.3604 33.5213C27.5021 33.7696 27.5519 34.0599 27.5011 34.3413C27.4504 34.6226 27.3024 34.8772 27.0829 35.0605C26.8634 35.2437 26.5865 35.344 26.3006 35.3438H12.6994C12.4135 35.344 12.1366 35.2437 11.9171 35.0605C11.6977 34.8772 11.5496 34.6226 11.4989 34.3413C11.4481 34.0599 11.4979 33.7696 11.6396 33.5213C11.7812 33.2729 12.0056 33.0822 12.2736 32.9826C14.1619 32.279 16.1801 31.8451 18.2812 31.7232V10.14H10.2895L14.3097 26.5915C14.3742 26.8544 14.3492 27.1312 14.2389 27.3784C14.1286 27.6256 13.9391 27.8289 13.7004 27.9565C12.1111 28.8092 10.3348 29.2536 8.53125 29.25C6.72781 29.2541 4.95158 28.8102 3.36212 27.9581C3.1234 27.8306 2.93393 27.6272 2.82359 27.38C2.71325 27.1329 2.68833 26.856 2.75275 26.5931L6.773 10.1416H3.65625C3.35373 10.1427 3.0616 10.0313 2.83668 9.82899C2.61176 9.62667 2.47013 9.34794 2.43932 9.04698C2.40852 8.74603 2.49074 8.44438 2.67001 8.20069C2.84928 7.957 3.11277 7.78869 3.40925 7.7285C8.3046 6.72129 13.2839 6.17722 18.2812 6.1035V4.875C18.2812 4.55177 18.4097 4.24177 18.6382 4.01321C18.8668 3.78465 19.1768 3.65625 19.5 3.65625ZM27.4268 25.6636L30.4688 13.2129L33.5108 25.6636H27.4268ZM11.5733 25.6636L8.53125 13.2129L5.48925 25.6636H11.5733Z" fill="white"/>
</svg>
