<svg width="37" height="37" viewBox="0 0 37 37" fill="none" xmlns="http://www.w3.org/2000/svg">
<path d="M3.7 6.16667V4.93333C3.41499 4.93351 3.13883 5.03238 2.91848 5.21316C2.69813 5.39394 2.5472 5.64545 2.49133 5.92493L3.7 6.16667ZM33.3 6.16667L34.5087 5.92493C34.4528 5.64545 34.3019 5.39394 34.0815 5.21316C33.8612 5.03238 33.585 4.93351 33.3 4.93333V6.16667ZM35.7667 18.5V19.7333C35.9491 19.7332 36.1292 19.6927 36.294 19.6146C36.4588 19.5365 36.6043 19.4228 36.7199 19.2817C36.8355 19.1406 36.9184 18.9756 36.9625 18.7987C37.0067 18.6217 37.0111 18.4371 36.9753 18.2583L35.7667 18.5ZM1.23333 18.5L0.0246667 18.2583C-0.0110836 18.4371 -0.00671666 18.6217 0.0374529 18.7987C0.0816224 18.9756 0.164495 19.1406 0.2801 19.2817C0.395704 19.4228 0.541163 19.5365 0.705997 19.6146C0.87083 19.6927 1.05093 19.7332 1.23333 19.7333V18.5ZM8.63333 25.9H7.4V27.1333H8.63333V25.9ZM28.3667 25.9V27.1333H29.6V25.9H28.3667ZM0 37H37V34.5333H0V37ZM2.46667 18.5V35.7667H4.93333V18.5H2.46667ZM32.0667 18.5V35.7667H34.5333V18.5H32.0667ZM3.7 7.4H33.3V4.93333H3.7V7.4ZM32.0913 6.4084L34.558 18.7417L36.9753 18.2583L34.5087 5.92493L32.0913 6.4084ZM35.7667 17.2667H1.23333V19.7333H35.7667V17.2667ZM2.442 18.7417L4.90867 6.4084L2.49133 5.92493L0.0246667 18.2583L2.442 18.7417ZM2.46667 2.46667H34.5333V0H2.46667V2.46667ZM7.4 18.5V25.9H9.86667V18.5H7.4ZM8.63333 27.1333H28.3667V24.6667H8.63333V27.1333ZM29.6 25.9V18.5H27.1333V25.9H29.6Z" fill="white"/>
</svg>
