<svg width="61" height="47" viewBox="0 0 61 47" fill="none" xmlns="http://www.w3.org/2000/svg">
<path d="M37.5 43.0833C48.3155 43.0833 57.0833 34.3156 57.0833 23.5C57.0833 12.6844 48.3155 3.91667 37.5 3.91667C26.6844 3.91667 17.9166 12.6844 17.9166 23.5C17.9166 34.3156 26.6844 43.0833 37.5 43.0833Z" stroke="white" stroke-width="2" stroke-linecap="round" stroke-linejoin="round"/>
<path d="M29.6666 29.375H45.3333M29.6666 17.625H33.5833M41.4166 17.625H45.3333" stroke="white" stroke-width="2" stroke-linecap="round" stroke-linejoin="round"/>
<path d="M23.8 37.4C23.8 38.8852 23.21 40.3096 22.1598 41.3598C21.1096 42.41 19.6852 43 18.2 43H9.79997C9.06339 43 8.33404 42.8547 7.6537 42.5724C6.97337 42.2901 6.3554 41.8763 5.83521 41.3549C5.31502 40.8334 4.90282 40.2144 4.62222 39.5333C4.34162 38.8523 4.19813 38.1226 4.19997 37.386V20.6C4.19997 20.2287 4.34747 19.8726 4.61002 19.6101C4.87257 19.3475 5.22867 19.2 5.59997 19.2C5.97127 19.2 6.32737 19.3475 6.58992 19.6101C6.85247 19.8726 6.99997 20.2287 6.99997 20.6V29H8.39997V17.8C8.39997 17.4287 8.54747 17.0726 8.81002 16.8101C9.07257 16.5475 9.42867 16.4 9.79997 16.4C10.1713 16.4 10.5274 16.5475 10.7899 16.8101C11.0525 17.0726 11.2 17.4287 11.2 17.8V29H12.6V16.4C12.6 16.0287 12.7475 15.6726 13.01 15.4101C13.2726 15.1475 13.6287 15 14 15C14.3713 15 14.7274 15.1475 14.9899 15.4101C15.2525 15.6726 15.4 16.0287 15.4 16.4V29H16.8V17.8C16.8 17.4287 16.9475 17.0726 17.21 16.8101C17.4726 16.5475 17.8287 16.4 18.2 16.4C18.5713 16.4 18.9274 16.5475 19.1899 16.8101C19.4525 17.0726 19.6 17.4287 19.6 17.8V36H21V27.6C21 27.2287 21.1475 26.8726 21.41 26.6101C21.6726 26.3475 22.0287 26.2 22.4 26.2H23.8V37.4Z" fill="white"/>
</svg>
