<svg width="43" height="43" viewBox="0 0 43 43" fill="none" xmlns="http://www.w3.org/2000/svg">
<path d="M6.98746 20.0219C6.65899 19.6635 6.49475 19.2383 6.49475 18.7462C6.49475 18.2541 6.65899 17.8283 6.98746 17.4688L12.0041 12.4521L10.0781 10.526L9.54058 11.0635C9.18225 11.4219 8.75703 11.601 8.26492 11.601C7.77281 11.601 7.34699 11.4219 6.98746 11.0635C6.65899 10.7351 6.49475 10.317 6.49475 9.80938C6.49475 9.30174 6.65899 8.88368 6.98746 8.55521L10.5708 4.97188C10.9291 4.61355 11.3549 4.43438 11.8483 4.43438C12.3416 4.43438 12.7668 4.61355 13.1239 4.97188C13.4524 5.30035 13.6166 5.71841 13.6166 6.22605C13.6166 6.73368 13.4524 7.15174 13.1239 7.48021L12.5864 8.01771L14.5125 9.94375L19.5291 4.92709C19.8875 4.56875 20.3133 4.38959 20.8066 4.38959C21.2999 4.38959 21.7251 4.56875 22.0823 4.92709C22.4394 5.28542 22.6186 5.71124 22.6198 6.20455C22.6209 6.69785 22.4418 7.12307 22.0823 7.48021L20.8729 8.6448L34.0864 21.8583C34.7732 22.5451 35.1166 23.389 35.1166 24.39C35.1166 25.3909 34.7732 26.2342 34.0864 26.9198L32.8323 28.2188L41.2979 36.6396H36.1916L30.2791 30.7271L29.025 32.026C28.3382 32.7129 27.4949 33.0563 26.4951 33.0563C25.4954 33.0563 24.6515 32.7129 23.9635 32.026L10.75 18.8125L9.54058 20.0219C9.18225 20.3504 8.75703 20.5146 8.26492 20.5146C7.77281 20.5146 7.34699 20.3504 6.98746 20.0219ZM13.2583 16.3042L26.4718 29.5177L31.5333 24.4115L28.8458 21.6792L26.3375 24.1875C25.9791 24.516 25.5539 24.688 25.0618 24.7035C24.5697 24.719 24.1588 24.562 23.8291 24.2323C23.4708 23.874 23.2916 23.4487 23.2916 22.9566C23.2916 22.4645 23.4708 22.0387 23.8291 21.6792L26.3375 19.1708L23.65 16.4833L21.1416 18.9917C20.7833 19.3201 20.3581 19.4844 19.866 19.4844C19.3738 19.4844 18.948 19.3201 18.5885 18.9917C18.26 18.6333 18.0958 18.2081 18.0958 17.716C18.0958 17.2239 18.26 16.7981 18.5885 16.4385L21.0968 13.9302L18.3645 11.1979L13.2583 16.3042Z" fill="white"/>
</svg>
