<svg width="51" height="40" viewBox="0 0 51 40" fill="none" xmlns="http://www.w3.org/2000/svg">
<path d="M44.0915 6.05474C49.4181 13.7783 34.1183 32.8256 34.1183 32.8256L29.7366 28.9829L23.4599 36.1861L20.1928 33.3208L44.0915 6.05474Z" fill="white"/>
<path d="M10.0512 7.17945H33.0254V12.923H31.5895V14.3589H22.9742C22.5934 14.3589 22.2282 14.5102 21.9589 14.7794C21.6896 15.0487 21.5383 15.4139 21.5383 15.7948V17.2307C21.5383 17.9923 21.2358 18.7227 20.6972 19.2613C20.1586 19.7999 19.4282 20.1024 18.6666 20.1024H13.8133C13.2676 20.1024 12.7651 20.4183 12.521 20.9065L9.00304 27.928C8.75894 28.4162 8.27074 28.7178 7.7251 28.7178H2.8718C2.8718 28.7178 -1.43586 28.7178 4.30769 20.1024C4.30769 20.1024 8.61535 14.3589 2.8718 14.3589V7.17945H4.30769L5.02563 5.74356H9.33329L10.0512 7.17945ZM20.1024 17.2307V15.7948C20.1024 15.4139 19.9512 15.0487 19.6819 14.7794C19.4126 14.5102 19.0474 14.3589 18.6666 14.3589H17.2307C17.2307 14.3589 15.7948 15.7948 17.2307 17.2307C16.469 17.2307 15.7386 16.9281 15.2 16.3895C14.6615 15.851 14.3589 15.1205 14.3589 14.3589C13.9781 14.3589 13.6129 14.5102 13.3436 14.7794C13.0743 15.0487 12.923 15.4139 12.923 15.7948V17.2307C12.923 17.6115 13.0743 17.9767 13.3436 18.246C13.6129 18.5153 13.9781 18.6665 14.3589 18.6665H18.6666C19.0474 18.6665 19.4126 18.5153 19.6819 18.246C19.9512 17.9767 20.1024 17.6115 20.1024 17.2307Z" fill="white"/>
</svg>
